<?xml version="1.0" encoding="iso-8859-1"?>
<!-- Generator: Adobe Illustrator 19.0.0, SVG Export Plug-In . SVG Version: 6.00 Build 0)  -->
<svg version="1.1" id="Capa_1" xmlns="http://www.w3.org/2000/svg" xmlns:xlink="http://www.w3.org/1999/xlink" x="0px" y="0px"
	 viewBox="0 0 512.01 512.01" style="enable-background:new 0 0 512.01 512.01;" xml:space="preserve">
<path style="fill:#03A9F4;" d="M459.945,256.01V106.677c0.217-52.807-42.415-95.791-95.222-96.008
	c-23.952-0.098-47.07,8.797-64.778,24.926c-38.591-35.37-98.548-32.759-133.918,5.832c-1.655,1.805-3.239,3.674-4.749,5.602V10.677
	H54.611V224.01h106.667v-85.333c0-11.782,9.551-21.333,21.333-21.333s21.333,9.551,21.333,21.333v85.333h106.667v-85.333
	c0-11.782,9.551-21.333,21.333-21.333c11.782,0,21.333,9.551,21.333,21.333v85.333L459.945,256.01z"/>
<path style="fill:#37474F;" d="M459.945,266.677c-1.041,0.007-2.077-0.144-3.072-0.448l-106.667-32
	c-4.51-1.356-7.596-5.509-7.595-10.219v-85.333c0-5.891-4.776-10.667-10.667-10.667c-5.891,0-10.667,4.776-10.667,10.667v85.333
	c0,5.891-4.776,10.667-10.667,10.667H203.945c-5.891,0-10.667-4.776-10.667-10.667v-85.333c0-5.891-4.776-10.667-10.667-10.667
	s-10.667,4.776-10.667,10.667v85.333c0,5.891-4.776,10.667-10.667,10.667H54.611c-5.891,0-10.667-4.776-10.667-10.667V10.677
	c0-5.891,4.776-10.667,10.667-10.667h106.667c5.891,0,10.667,4.776,10.667,10.667v11.072c38.049-28.073,89.951-28.073,128,0
	c46.678-35.57,113.354-26.566,148.924,20.112c14.185,18.615,21.828,41.391,21.742,64.794v149.333
	c0,5.891-4.776,10.667-10.667,10.667V266.677z M363.945,216.074l85.333,25.6V106.677c0.219-46.916-37.635-85.126-84.551-85.346
	c-21.314-0.1-41.886,7.816-57.635,22.178c-4.06,3.664-10.233,3.664-14.293,0c-34.22-31.42-87.432-29.15-118.852,5.07
	c-1.509,1.644-2.953,3.347-4.327,5.106c-3.671,4.607-10.383,5.365-14.99,1.694c-2.565-2.044-4.047-5.155-4.018-8.435v-25.6H65.278
	v192h85.333v-74.667c-0.01-17.673,14.309-32.008,31.982-32.018c17.673-0.01,32.008,14.309,32.018,31.982c0,0.012,0,0.024,0,0.036
	v74.667h85.333v-74.667c0-17.673,14.327-32,32-32c17.673,0,32,14.327,32,32V216.074z"/>
<path style="fill:#EF5350;" d="M33.278,224.01h85.333c11.782,0,21.333,9.551,21.333,21.333v64c0,11.782-9.551,21.333-21.333,21.333
	H33.278c-11.782,0-21.333-9.551-21.333-21.333v-64C11.945,233.561,21.496,224.01,33.278,224.01z"/>
<path style="fill:#37474F;" d="M118.611,341.343H33.278c-17.673,0-32-14.327-32-32l0,0v-64c0-17.673,14.327-32,32-32h85.333
	c17.673,0,32,14.327,32,32v64C150.611,327.017,136.284,341.343,118.611,341.343L118.611,341.343z M33.278,234.677
	c-5.891,0-10.667,4.776-10.667,10.667v64c0,5.891,4.776,10.667,10.667,10.667h85.333c5.891,0,10.667-4.776,10.667-10.667v-64
	c0-5.891-4.776-10.667-10.667-10.667H33.278z"/>
<path style="fill:#EF5350;" d="M33.278,330.677h85.333c11.782,0,21.333,9.551,21.333,21.333v128
	c0,11.782-9.551,21.333-21.333,21.333H33.278c-11.782,0-21.333-9.551-21.333-21.333v-128
	C11.945,340.228,21.496,330.677,33.278,330.677z"/>
<path style="fill:#37474F;" d="M118.611,512.01H33.278c-17.673,0-32-14.327-32-32v-128c0-17.673,14.327-32,32-32h85.333
	c17.673,0,32,14.327,32,32v128C150.611,497.683,136.284,512.01,118.611,512.01z M33.278,341.343
	c-5.891,0-10.667,4.776-10.667,10.667v128c0,5.891,4.776,10.667,10.667,10.667h85.333c5.891,0,10.667-4.776,10.667-10.667v-128
	c0-5.891-4.776-10.667-10.667-10.667H33.278z"/>
<path style="fill:#EF5350;" d="M331.945,245.343v85.333c0,11.782-9.551,21.333-21.333,21.333h-42.667v128
	c0,11.782-9.551,21.333-21.333,21.333h-85.333c-11.782,0-21.333-9.551-21.333-21.333V245.343c0-11.782,9.551-21.333,21.333-21.333
	h149.333c5.287,0.014,10.381,1.99,14.293,5.547C329.328,233.623,331.876,239.335,331.945,245.343z"/>
<path style="fill:#37474F;" d="M246.611,512.01h-85.333c-17.673,0-32-14.327-32-32V245.343c0-17.673,14.327-32,32-32h149.333
	c7.883,0.024,15.479,2.956,21.333,8.235c6.702,6.097,10.566,14.706,10.667,23.765v85.333c0,17.673-14.327,32-32,32h-32V480.01
	C278.611,497.683,264.284,512.01,246.611,512.01z M161.278,234.677c-5.891,0-10.667,4.776-10.667,10.667V480.01
	c0,5.891,4.776,10.667,10.667,10.667h85.333c5.891,0,10.667-4.776,10.667-10.667v-128c0-5.891,4.776-10.667,10.667-10.667h42.667
	c5.891,0,10.667-4.776,10.667-10.667v-85.333c-0.098-3.089-1.445-6.007-3.733-8.085c-1.917-1.68-4.384-2.599-6.933-2.581H161.278z"
	/>
<path style="fill:#FFC107;" d="M473.385,447.583c-46.635,60.42-133.42,71.596-193.84,24.961c-4.049-3.125-7.922-6.473-11.6-10.028
	V352.01h42.667c11.782,0,21.333-9.551,21.333-21.333v-85.333c-0.069-6.008-2.616-11.721-7.04-15.787
	c12.681-3.706,25.828-5.574,39.04-5.547c2.56,0,5.333,0.213,7.893,0.427c63.496,3.558,116.39,49.94,128.213,112.427
	c-39.694,36.511-97.004,46.59-146.773,25.813C373.718,411.67,420.379,444.656,473.385,447.583z"/>
<g>
	<path style="fill:#37474F;" d="M363.945,512.01c-38.607,0.054-75.712-14.955-103.424-41.835c-2.073-2.009-3.243-4.772-3.243-7.659
		V352.01c0-5.891,4.776-10.667,10.667-10.667h42.667c5.891,0,10.667-4.776,10.667-10.667v-85.333
		c-0.098-3.089-1.445-6.007-3.733-8.085c-4.256-4.073-4.404-10.826-0.33-15.081c1.291-1.348,2.913-2.335,4.704-2.86
		c16.449-4.908,33.654-6.781,50.773-5.525c68.394,3.758,125.344,53.808,137.856,121.152c0.682,3.611-0.543,7.319-3.243,9.813
		c-35.748,32.545-84.966,45.913-132.267,35.925c22.426,33.162,59.022,53.983,98.987,56.32c5.882,0.319,10.392,5.346,10.073,11.229
		c-0.118,2.178-0.901,4.268-2.244,5.987C453.661,490.751,410.091,512.107,363.945,512.01z M278.611,457.866
		c49.47,44.614,124.949,43.619,173.227-2.283c-48.594-9.862-89.166-43.119-108.373-88.832c-2.255-5.443,0.33-11.682,5.772-13.937
		c2.619-1.085,5.562-1.083,8.18,0.006c43.982,17.999,94.298,10.369,130.965-19.861c-12.995-55.027-60.723-94.891-117.184-97.877
		c-9.98-0.821-20.026-0.297-29.867,1.557c0.82,2.829,1.237,5.759,1.237,8.704v85.333c0,17.673-14.327,32-32,32h-32L278.611,457.866z
		"/>
	<path style="fill:#37474F;" d="M406.611,341.343c-4.896-0.001-9.162-3.335-10.347-8.085l-10.667-42.667
		c-1.426-5.72,2.056-11.513,7.776-12.939c5.72-1.426,11.513,2.056,12.939,7.776l0,0l10.667,42.667
		c1.424,5.714-2.052,11.501-7.765,12.928C408.362,341.234,407.488,341.341,406.611,341.343z"/>
	<path style="fill:#37474F;" d="M438.611,330.677c-4.896-0.001-9.162-3.335-10.347-8.085l-10.667-42.667
		c-1.426-5.72,2.056-11.513,7.776-12.939c5.72-1.426,11.513,2.056,12.939,7.776l0,0l10.667,42.667
		c1.424,5.714-2.052,11.501-7.765,12.928C440.362,330.567,439.488,330.675,438.611,330.677z"/>
</g>
<path d="M353.278,234.677c-5.891,0-10.667-4.776-10.667-10.667v-85.333c0-5.891-4.776-10.667-10.667-10.667
	c-5.891,0-10.667,4.776-10.667,10.667v85.333c0,5.891-4.776,10.667-10.667,10.667H203.945c-5.891,0-10.667-4.776-10.667-10.667
	v-85.333c0-5.891-4.776-10.667-10.667-10.667s-10.667,4.776-10.667,10.667v85.333c0,5.891-4.776,10.667-10.667,10.667H54.611
	c-5.891,0-10.667-4.776-10.667-10.667V10.677c0-5.891,4.776-10.667,10.667-10.667h106.667c5.891,0,10.667,4.776,10.667,10.667
	v11.072c38.049-28.073,89.951-28.073,128,0c46.678-35.57,113.354-26.566,148.924,20.112c14.185,18.615,21.828,41.391,21.742,64.794
	c0,5.891-4.776,10.667-10.667,10.667s-10.667-4.776-10.667-10.667c0.219-46.916-37.635-85.126-84.551-85.346
	c-21.314-0.1-41.886,7.816-57.635,22.178c-4.06,3.664-10.233,3.664-14.293,0c-34.22-31.42-87.432-29.15-118.852,5.07
	c-1.509,1.644-2.953,3.347-4.327,5.106c-3.672,4.607-10.383,5.365-14.99,1.694c-2.559-2.04-4.04-5.141-4.018-8.414v-25.6H65.278v192
	h85.333v-74.667c-0.01-17.673,14.309-32.008,31.982-32.018c17.673-0.01,32.008,14.309,32.018,31.982c0,0.012,0,0.024,0,0.036v74.667
	h85.333v-74.667c0-17.673,14.327-32,32-32c17.673,0,32,14.327,32,32v85.333C363.945,229.901,359.169,234.677,353.278,234.677z"/>
<path d="M459.945,266.677c-5.891,0-10.667-4.776-10.667-10.667V106.677c0-5.891,4.776-10.667,10.667-10.667
	s10.667,4.776,10.667,10.667V256.01C470.611,261.901,465.836,266.677,459.945,266.677z"/>
<path d="M118.611,341.343H33.278c-17.673,0-32-14.327-32-32l0,0v-64c0-17.673,14.327-32,32-32h85.333c17.673,0,32,14.327,32,32v64
	C150.611,327.017,136.284,341.343,118.611,341.343L118.611,341.343z M33.278,234.677c-5.891,0-10.667,4.776-10.667,10.667v64
	c0,5.891,4.776,10.667,10.667,10.667h85.333c5.891,0,10.667-4.776,10.667-10.667v-64c0-5.891-4.776-10.667-10.667-10.667H33.278z"/>
<path d="M118.611,512.01H33.278c-17.673,0-32-14.327-32-32v-128c0-17.673,14.327-32,32-32h85.333c17.673,0,32,14.327,32,32v128
	C150.611,497.683,136.284,512.01,118.611,512.01z M33.278,341.343c-5.891,0-10.667,4.776-10.667,10.667v128
	c0,5.891,4.776,10.667,10.667,10.667h85.333c5.891,0,10.667-4.776,10.667-10.667v-128c0-5.891-4.776-10.667-10.667-10.667H33.278z"
	/>
<path d="M246.611,512.01h-85.333c-17.673,0-32-14.327-32-32V245.343c0-17.673,14.327-32,32-32h149.333
	c7.883,0.024,15.479,2.956,21.333,8.235c6.702,6.097,10.566,14.706,10.667,23.765v85.333c0,17.673-14.327,32-32,32h-32V480.01
	C278.611,497.683,264.284,512.01,246.611,512.01z M161.278,234.677c-5.891,0-10.667,4.776-10.667,10.667V480.01
	c0,5.891,4.776,10.667,10.667,10.667h85.333c5.891,0,10.667-4.776,10.667-10.667v-128c0-5.891,4.776-10.667,10.667-10.667h42.667
	c5.891,0,10.667-4.776,10.667-10.667v-85.333c-0.098-3.089-1.445-6.007-3.733-8.085c-1.917-1.68-4.384-2.599-6.933-2.581H161.278z"
	/>
<path d="M363.945,512.01c-38.607,0.054-75.712-14.955-103.424-41.835c-2.073-2.009-3.243-4.772-3.243-7.659V352.01
	c0-5.891,4.776-10.667,10.667-10.667h42.667c5.891,0,10.667-4.776,10.667-10.667v-85.333c-0.098-3.089-1.445-6.007-3.733-8.085
	c-4.256-4.073-4.404-10.826-0.33-15.081c1.291-1.348,2.913-2.335,4.704-2.86c16.449-4.907,33.654-6.78,50.773-5.525
	c68.394,3.758,125.344,53.808,137.856,121.152c0.682,3.611-0.543,7.319-3.243,9.813c-35.746,32.548-84.966,45.917-132.267,35.925
	c22.426,33.162,59.022,53.983,98.987,56.32c5.882,0.319,10.392,5.346,10.073,11.229c-0.118,2.178-0.901,4.268-2.244,5.987
	C453.661,490.751,410.091,512.107,363.945,512.01z M278.611,457.866c49.47,44.614,124.949,43.619,173.227-2.283
	c-48.594-9.862-89.166-43.119-108.373-88.832c-2.255-5.443,0.33-11.682,5.772-13.937c2.619-1.085,5.562-1.083,8.18,0.006
	c43.982,17.999,94.298,10.369,130.965-19.861c-12.995-55.027-60.723-94.891-117.184-97.877c-9.98-0.821-20.026-0.297-29.867,1.557
	c0.82,2.829,1.237,5.759,1.237,8.704v85.333c0,17.673-14.327,32-32,32h-32L278.611,457.866z"/>
<path d="M406.611,341.343c-4.896-0.001-9.162-3.335-10.347-8.085l-10.667-42.667c-1.426-5.72,2.056-11.513,7.776-12.939
	c5.72-1.426,11.513,2.056,12.939,7.776l0,0l10.667,42.667c1.424,5.714-2.052,11.501-7.765,12.928
	C408.362,341.234,407.488,341.341,406.611,341.343z"/>
<path d="M438.611,330.677c-4.896-0.001-9.162-3.335-10.347-8.085l-10.667-42.667c-1.426-5.72,2.056-11.513,7.776-12.939
	c5.72-1.426,11.513,2.056,12.939,7.776l0,0l10.667,42.667c1.424,5.714-2.052,11.501-7.765,12.928
	C440.362,330.567,439.488,330.675,438.611,330.677z"/>
<g>
</g>
<g>
</g>
<g>
</g>
<g>
</g>
<g>
</g>
<g>
</g>
<g>
</g>
<g>
</g>
<g>
</g>
<g>
</g>
<g>
</g>
<g>
</g>
<g>
</g>
<g>
</g>
<g>
</g>
</svg>
